<svg id="call-answer" xmlns="http://www.w3.org/2000/svg" width="15.81" height="15.774" viewBox="0 0 15.81 15.774">
  <g id="Group_5" data-name="Group 5" transform="translate(0 0)">
    <g id="Group_4" data-name="Group 4">
      <path id="Path_2135" data-name="Path 2135" d="M15.455,12.87l-2.442-2.442a1.273,1.273,0,0,0-1.795.034l-1.23,1.23-.243-.135a12.241,12.241,0,0,1-2.959-2.14A12.309,12.309,0,0,1,4.643,6.453c-.046-.082-.089-.162-.132-.237l.826-.824.406-.406a1.272,1.272,0,0,0,.033-1.8L3.333.748A1.272,1.272,0,0,0,1.538.782L.85,1.474l.019.019a3.979,3.979,0,0,0-.567,1A4.147,4.147,0,0,0,.05,3.507c-.322,2.673.9,5.115,4.214,8.43,4.582,4.581,8.274,4.235,8.433,4.218a4.125,4.125,0,0,0,1.017-.256,3.966,3.966,0,0,0,1-.565l.015.013.7-.683A1.274,1.274,0,0,0,15.455,12.87Z" transform="translate(0 -0.394)" fill="#fff"/>
    </g>
  </g>
</svg>
