<svg xmlns="http://www.w3.org/2000/svg" xmlns:xlink="http://www.w3.org/1999/xlink" width="19.989" height="20" viewBox="0 0 19.989 20">
  <defs>
    <clipPath id="clip-path">
      <rect width="19.989" height="20" fill="none"/>
    </clipPath>
  </defs>
  <g id="message" clip-path="url(#clip-path)">
    <g id="Comment">
      <g id="Shape" fill="none" stroke-miterlimit="10">
        <path d="M10,19.3a10.3,10.3,0,0,0,3.908-.764.586.586,0,0,1,.082-.034s.01,0,.01,0a1.548,1.548,0,0,1,.538-.1,1.461,1.461,0,0,1,.582.115L19.158,20,18.1,15.75a1.443,1.443,0,0,1,.187-.7h0a1.641,1.641,0,0,1,.12-.178,9.347,9.347,0,0,0,1.586-5.212A9.817,9.817,0,0,0,10,0,9.83,9.83,0,0,0,0,9.649,9.826,9.826,0,0,0,10,19.3Z" stroke="none"/>
        <path d="M 9.999519348144531 17.29808044433594 C 10.86373996734619 17.29808044433594 11.70677280426025 17.16889381408691 12.5139627456665 16.91340827941895 L 13.30291938781738 16.6203498840332 C 13.38139057159424 16.59120178222656 13.46063613891602 16.56491279602051 13.54060173034668 16.54148483276367 L 13.66497898101807 16.5 L 13.69510459899902 16.5 C 13.9697265625 16.43290901184082 14.25180339813232 16.39904022216797 14.53775978088379 16.39904022216797 C 14.99788379669189 16.39904022216797 15.43918228149414 16.48422050476074 15.85056972503662 16.6523323059082 L 16.30071067810059 16.81792831420898 L 16.15499877929688 16.23505020141602 L 16.09528923034668 15.99619960784912 L 16.09528923034668 15.75 C 16.09528923034668 15.1701602935791 16.2478084564209 14.5903902053833 16.53636932373047 14.0733699798584 L 16.55711936950684 14.03619003295898 L 16.57943916320801 13.99991989135742 C 16.62485122680664 13.9261302947998 16.68823623657227 13.82311534881592 16.77407264709473 13.70759582519531 C 17.56943130493164 12.49499797821045 17.98942947387695 11.09638786315918 17.98942947387695 9.655050277709961 C 17.99300003051758 7.674650192260742 17.20841979980469 5.796030044555664 15.78021907806396 4.365260124206543 C 14.25769901275635 2.839999914169312 12.20474910736084 2 9.999519348144531 2 C 5.588569164276123 2 1.999999403953552 5.431350231170654 1.999999403953552 9.649040222167969 C 1.999999403953552 13.86672973632813 5.588569164276123 17.29808044433594 9.999519348144531 17.29808044433594 M 19.15773010253906 20 L 15.11946964263916 18.51441955566406 C 14.94158935546875 18.4375 14.74447917938232 18.39904022216797 14.53775978088379 18.39904022216797 C 14.35026931762695 18.39904022216797 14.16758918762207 18.43268966674805 13.99932956695557 18.49518966674805 C 13.99932956695557 18.5 13.99451923370361 18.5 13.98970890045166 18.5 C 13.96086978912354 18.50962066650391 13.93682956695557 18.51922988891602 13.90798950195313 18.53366088867188 C 12.71092891693115 19.02404022216797 11.38887977600098 19.29808044433594 9.999519348144531 19.29808044433594 C 4.475749492645264 19.29808044433594 -6.518554869217041e-07 14.98077011108398 -6.518554869217041e-07 9.649040222167969 C -6.518554869217041e-07 4.322120189666748 4.475749492645264 0 9.999519348144531 0 C 15.52328968048096 0 19.99903869628906 4.322120189666748 19.98942947387695 9.658650398254395 C 19.98942947387695 11.57691955566406 19.40771865844727 13.36538982391357 18.4029598236084 14.87018966674805 C 18.35969924926758 14.92308044433594 18.32123947143555 14.98558044433594 18.28277969360352 15.04808044433594 C 18.16739845275879 15.25481033325195 18.09528923034668 15.49518966674805 18.09528923034668 15.75 L 19.15773010253906 20 Z" stroke="none" fill="#fff"/>
      </g>
      <circle id="Path" cx="1.5" cy="1.5" r="1.5" transform="translate(3.998 8)" fill="#fff"/>
      <circle id="Path-2" data-name="Path" cx="1.5" cy="1.5" r="1.5" transform="translate(7.998 8)" fill="#fff"/>
      <circle id="Path-3" data-name="Path" cx="1.5" cy="1.5" r="1.5" transform="translate(11.998 8)" fill="#fff"/>
    </g>
  </g>
</svg>
