<svg xmlns="http://www.w3.org/2000/svg" width="30.476" height="40" viewBox="0 0 30.476 40">
  <g id="padlock_2_" data-name="padlock (2)" transform="translate(-178.333 -63)">
    <g id="Group_65101" data-name="Group 65101" transform="translate(178.333 63)">
      <path id="Path_44067" data-name="Path 44067" d="M80,13.333h-1.9V9.524a9.524,9.524,0,0,0-19.048,0v3.81h-1.9a3.809,3.809,0,0,0-3.81,3.81V36.191A3.808,3.808,0,0,0,57.143,40H80a3.809,3.809,0,0,0,3.81-3.81V17.143A3.809,3.809,0,0,0,80,13.333ZM68.571,30.476a3.81,3.81,0,1,1,3.81-3.809A3.809,3.809,0,0,1,68.571,30.476Zm5.9-17.143H62.666V9.524a5.9,5.9,0,0,1,11.809,0Z" transform="translate(-53.333)" fill="#fff"/>
    </g>
  </g>
</svg>
