<svg xmlns="http://www.w3.org/2000/svg" width="16.546" height="12.001" viewBox="0 0 16.546 12.001">
  <path id="video-call" d="M9.159,12H2.66A2.553,2.553,0,0,1,.78,11.208,2.629,2.629,0,0,1,0,9.3V2.7A2.633,2.633,0,0,1,.78.792,2.553,2.553,0,0,1,2.66,0h6.5a2.553,2.553,0,0,1,1.879.792,2.633,2.633,0,0,1,.78,1.908V4.247L15.539.478A.547.547,0,0,1,15.955.3a.644.644,0,0,1,.23.047.563.563,0,0,1,.36.553V11.1a.562.562,0,0,1-.36.553.624.624,0,0,1-.23.047.547.547,0,0,1-.416-.178L11.819,7.744V9.3a2.629,2.629,0,0,1-.78,1.907A2.553,2.553,0,0,1,9.159,12ZM8.818,2.182a.545.545,0,0,0,0,1.091h.013a.545.545,0,1,0,0-1.091Zm-6.067,0a.545.545,0,0,0,0,1.091H6.624a.545.545,0,1,0,0-1.091Z" fill="#fff"/>
</svg>
